<?xml version="1.0" standalone="no"?>
<!DOCTYPE svg PUBLIC "-//W3C//DTD SVG 20010904//EN"
 "http://www.w3.org/TR/2001/REC-SVG-20010904/DTD/svg10.dtd">
<svg version="1.0" xmlns="http://www.w3.org/2000/svg"
 width="254.000000pt" height="119.000000pt" viewBox="0 0 254.000000 119.000000"
 preserveAspectRatio="xMidYMid meet">

<g transform="translate(0.000000,119.000000) scale(0.100000,-0.100000)"
fill="#000000" stroke="none">
<path d="M40 1110 l0 -40 1230 0 1230 0 0 40 0 40 -1230 0 -1230 0 0 -40z"/>
<path d="M50 595 l0 -365 100 0 100 0 0 135 0 135 73 0 c105 0 168 21 210 71
102 118 59 341 -74 379 -18 6 -118 10 -221 10 l-188 0 0 -365z m330 193 c28
-31 26 -83 -5 -113 -19 -20 -34 -25 -75 -25 l-50 0 0 80 0 80 55 0 c43 0 58
-5 75 -22z"/>
<path d="M650 595 l0 -365 265 0 265 0 0 80 0 80 -167 2 -168 3 -3 73 -3 72
156 0 155 0 0 75 0 75 -155 0 -156 0 3 58 3 57 163 3 162 2 0 75 0 75 -260 0
-260 0 0 -365z"/>
<path d="M1250 595 l0 -365 265 0 265 0 0 80 0 80 -167 2 -168 3 -3 73 -3 72
156 0 155 0 0 75 0 75 -155 0 -155 0 0 60 0 60 165 0 165 0 0 75 0 75 -260 0
-260 0 0 -365z"/>
<path d="M1850 595 l0 -365 95 0 95 0 0 145 c0 158 3 165 54 145 22 -8 39 -36
93 -150 l66 -140 108 0 c99 0 108 2 102 18 -3 9 -32 72 -65 140 -48 101 -65
127 -94 144 l-35 21 38 17 c157 70 148 334 -12 379 -23 6 -126 11 -242 11
l-203 0 0 -365z m347 207 c21 -13 33 -60 23 -86 -13 -35 -42 -47 -113 -49
l-62 -2 -3 73 -3 72 73 0 c40 0 78 -4 85 -8z"/>
<path d="M40 75 l0 -45 1230 0 1230 0 0 45 0 45 -1230 0 -1230 0 0 -45z"/>
</g>
</svg>
